<?xml version="1.0" encoding="UTF-8"?>
<svg id="Layer_1" data-name="Layer 1" xmlns="http://www.w3.org/2000/svg" viewBox="0 0 140.82 80.26">
  <path d="M73.59,0h32.08c6.35,0,11.09.27,14.21.79,3.12.53,5.91,1.63,8.38,3.31,2.46,1.68,4.52,3.91,6.16,6.71s2.46,5.92,2.46,9.39c0,3.76-1.01,7.21-3.04,10.35-2.03,3.14-4.77,5.49-8.24,7.06,4.89,1.42,8.65,3.85,11.28,7.28,2.63,3.43,3.94,7.46,3.94,12.1,0,3.65-.85,7.2-2.55,10.65s-4.01,6.21-6.95,8.27c-2.94,2.06-6.56,3.33-10.87,3.8-2.7.29-9.22.47-19.54.55h-27.32V0ZM89.8,13.36v18.56h10.62c6.31,0,10.24-.09,11.77-.27,2.77-.33,4.96-1.29,6.54-2.87,1.59-1.59,2.38-3.68,2.38-6.27s-.68-4.5-2.05-6.05c-1.37-1.55-3.4-2.49-6.1-2.82-1.61-.18-6.22-.27-13.85-.27h-9.31ZM89.8,45.28v21.46h15c5.84,0,9.54-.16,11.11-.49,2.41-.44,4.37-1.5,5.89-3.2,1.51-1.7,2.27-3.97,2.27-6.82,0-2.41-.58-4.45-1.75-6.13-1.17-1.68-2.86-2.9-5.06-3.67-2.21-.77-7-1.15-14.37-1.15h-13.08Z"/>
  <path d="M67.23,80.26h-27.32c-10.33-.07-16.84-.26-19.54-.55-4.31-.47-7.93-1.74-10.87-3.8-2.94-2.06-5.26-4.82-6.95-8.27-1.7-3.45-2.55-7-2.55-10.65,0-4.63,1.31-8.67,3.94-12.1,2.63-3.43,6.39-5.86,11.28-7.28-3.47-1.57-6.21-3.92-8.24-7.06-2.03-3.14-3.04-6.59-3.04-10.35,0-3.47.82-6.6,2.46-9.39s3.7-5.03,6.16-6.71c2.46-1.68,5.26-2.78,8.38-3.31C24.06.27,28.8,0,35.15,0h32.08v80.26ZM37.94,45.28c-7.37,0-12.16.38-14.37,1.15-2.21.77-3.9,1.99-5.06,3.67-1.17,1.68-1.75,3.72-1.75,6.13,0,2.85.76,5.12,2.27,6.82,1.52,1.7,3.48,2.77,5.89,3.2,1.57.33,5.27.49,11.11.49h15v-21.46h-13.08ZM41.72,13.36c-7.63,0-12.24.09-13.85.27-2.7.33-4.74,1.27-6.1,2.82-1.37,1.55-2.05,3.57-2.05,6.05s.79,4.68,2.38,6.27c1.59,1.59,3.77,2.55,6.54,2.87,1.53.18,5.46.27,11.77.27h10.62V13.36h-9.31Z"/>
</svg>
